HIERARCHY
ROOT joint_Root
{
  OFFSET 0 0 0
  CHANNELS 6 Xposition Yposition Zposition Zrotation Xrotation Yrotation
  JOINT Hips
  {
    OFFSET 0.847027 93.984 -452.225
    CHANNELS 6 Xposition Yposition Zposition Zrotation Xrotation Yrotation
    JOINT Spine
    {
      OFFSET 15.7357 0 0
      CHANNELS 6 Xposition Yposition Zposition Zrotation Xrotation Yrotation
      JOINT Chest
      {
        OFFSET 8.98455 -0.406207 0
        CHANNELS 6 Xposition Yposition Zposition Zrotation Xrotation Yrotation
        JOINT Neck
        {
          OFFSET 16.3773 0 0
          CHANNELS 6 Xposition Yposition Zposition Zrotation Xrotation Yrotation
          JOINT Head
          {
            OFFSET 6.45672 0 0
            CHANNELS 6 Xposition Yposition Zposition Zrotation Xrotation Yrotation
            End Site
            {
              OFFSET 0 0 0
            }
          }
        }
        JOINT Shoulder_L
        {
          OFFSET 12.9942 -0.242716 4.98039
          CHANNELS 6 Xposition Yposition Zposition Zrotation Xrotation Yrotation
          JOINT UpperArm_L
          {
            OFFSET 5.34809 0 0
            CHANNELS 6 Xposition Yposition Zposition Zrotation Xrotation Yrotation
            JOINT LowerArm_L
            {
              OFFSET 24.3286 1.87007e-05 0
              CHANNELS 6 Xposition Yposition Zposition Zrotation Xrotation Yrotation
              JOINT Hand_L
              {
                OFFSET 22.2916 0 0
                CHANNELS 6 Xposition Yposition Zposition Zrotation Xrotation Yrotation
                End Site
                {
                  OFFSET 0 0 0
                }
              }
            }
          }
        }
        JOINT Shoulder_R
        {
          OFFSET 12.9945 -0.242716 -4.98039
          CHANNELS 6 Xposition Yposition Zposition Zrotation Xrotation Yrotation
          JOINT UpperArm_R
          {
            OFFSET -5.34813 0 0
            CHANNELS 6 Xposition Yposition Zposition Zrotation Xrotation Yrotation
            JOINT LowerArm_R
            {
              OFFSET -24.3289 0.000322201 0
              CHANNELS 6 Xposition Yposition Zposition Zrotation Xrotation Yrotation
              JOINT Hand_R
              {
                OFFSET -22.2915 -0.000108084 0
                CHANNELS 6 Xposition Yposition Zposition Zrotation Xrotation Yrotation
                End Site
                {
                  OFFSET 0 0 0
                }
              }
            }
          }
        }
      }
    }
    JOINT UpperLeg_L
    {
      OFFSET -2.19248 -6.46944 0
      CHANNELS 6 Xposition Yposition Zposition Zrotation Xrotation Yrotation
      JOINT LowerLeg_L
      {
        OFFSET 39.0811 0 -1.23785e-05
        CHANNELS 6 Xposition Yposition Zposition Zrotation Xrotation Yrotation
        JOINT Foot_L
        {
          OFFSET 40.9854 0 -1.26872e-05
          CHANNELS 6 Xposition Yposition Zposition Zrotation Xrotation Yrotation
          JOINT Toes_L
          {
            OFFSET 11.7543 0 0
            CHANNELS 6 Xposition Yposition Zposition Zrotation Xrotation Yrotation
            End Site
            {
              OFFSET 0 0 0
            }
          }
        }
      }
    }
    JOINT UpperLeg_R
    {
      OFFSET -2.19251 6.46944 0
      CHANNELS 6 Xposition Yposition Zposition Zrotation Xrotation Yrotation
      JOINT LowerLeg_R
      {
        OFFSET -39.0811 -0.00228153 -0.0401928
        CHANNELS 6 Xposition Yposition Zposition Zrotation Xrotation Yrotation
        JOINT Foot_R
        {
          OFFSET -40.9854 0 0
          CHANNELS 6 Xposition Yposition Zposition Zrotation Xrotation Yrotation
          JOINT Toes_R
          {
            OFFSET -11.7543 0 0
            CHANNELS 6 Xposition Yposition Zposition Zrotation Xrotation Yrotation
            End Site
            {
              OFFSET 0 0 0
            }
          }
        }
      }
    }
  }
}
MOTION
Frames:	4
Frame Time:	0.0333333
0 0 0 0 0 -0 -2.57763 91.2698 -12.7067 90.6266 -5.3491 -7.86565 15.7357 5.1072e-06 -5.51765e-07 87.6998 80.7006 -86.8744 8.98455 -0.406207 -4.3199e-07 10.8241 -0.719102 1.71793 16.3773 -1.3905e-06 -6.99897e-07 -1.80909 -1.93324 3.72716 6.45672 -1.25837e-06 -1.02172e-07 -25.291 0.602268 4.32004 12.9942 -0.242716 4.98039 -90.7681 4.32438 -94.9188 5.34809 -7.22636e-06 -6.2814e-07 -59.4576 -22.4515 -42.4343 24.3286 1.87007e-05 4.90208e-06 10.8521 4.61812 -67.2196 22.2916 -9.88446e-07 4.63217e-06 46.7004 5.60649 -11.7392 12.9945 -0.242716 -4.98039 89.152 8.82189 -99.4874 -5.34813 -1.25947e-06 -3.79883e-06 -41.4156 -20.846 -44.0962 -24.3289 0.000322201 -8.65921e-06 34.5827 11.9106 -73.3342 -22.2915 -0.000108084 -4.47941e-06 41.6347 5.18267 3.14824 -2.19248 -6.46944 -1.22534e-07 -174.824 -10.4332 -24.9875 39.0811 -6.73843e-06 -1.23785e-05 0.0806013 -0.153539 26.9012 40.9854 -6.48686e-06 -1.26872e-05 -4.94165 0.0604123 -57.4624 11.7543 -2.30145e-07 3.05095e-06 0.0326415 -0.0511772 -17.4895 -2.19251 6.46944 -1.45247e-06 177.332 11.9587 153.738 -39.0811 -0.00228153 -0.0401928 0.0725973 -0.122465 27.8717 -40.9854 7.72618e-06 5.99936e-06 -2.33109 3.243 -59.3944 -11.7543 -5.6619e-06 -5.58687e-06 0.0027448 -0.00306381 -16.6041 
0 0 0 0 0 -0 -2.69995 91.2413 -12.8216 90.7768 -5.3467 -7.77656 15.7357 5.1072e-06 -5.51765e-07 87.631 80.6646 -86.7057 8.98455 -0.406207 -4.3199e-07 10.8962 -0.740884 1.92019 16.3773 -1.3905e-06 -6.99897e-07 -1.88899 -1.86035 3.72236 6.45672 -1.25837e-06 -1.02172e-07 -25.6358 0.897277 4.28032 12.9942 -0.242716 4.98039 -90.7523 4.37768 -95.24 5.34809 -7.22636e-06 -6.2814e-07 -59.5897 -19.1378 -43.7725 24.3286 1.87007e-05 4.90208e-06 11.6823 4.94594 -67.3668 22.2916 -9.88446e-07 4.63217e-06 46.5477 5.60815 -11.8422 12.9945 -0.242716 -4.98039 89.191 8.68494 -99.6576 -5.34813 -1.25947e-06 -3.79883e-06 -39.3238 -17.4719 -45.2563 -24.3289 0.000322201 -8.65921e-06 35.4113 11.9048 -73.8206 -22.2915 -0.000108084 -4.47941e-06 41.5227 5.18962 2.97807 -2.19248 -6.46944 -1.22534e-07 -174.909 -10.5646 -24.9556 39.0811 -6.73843e-06 -1.23785e-05 0.0809765 -0.154631 26.8279 40.9854 -6.48686e-06 -1.26872e-05 -5.01517 0.189935 -57.306 11.7543 -2.30145e-07 3.05095e-06 0.0347035 -0.0544661 -17.5479 -2.19251 6.46944 -1.45247e-06 177.256 11.882 153.595 -39.0811 -0.00228153 -0.0401928 0.0737991 -0.123327 28.159 -40.9854 7.72618e-06 5.99936e-06 -2.24196 3.15886 -59.4837 -11.7543 -5.6619e-06 -5.58687e-06 0.0016303 -0.00181521 -16.5917 
0 0 0 0 0 -0 -2.82151 91.2263 -12.9351 90.9813 -5.36314 -7.72412 15.7357 5.1072e-06 -5.51765e-07 87.5406 80.6501 -86.5367 8.98455 -0.406207 -4.3199e-07 10.9249 -0.76889 2.08039 16.3773 -1.3905e-06 -6.99897e-07 -1.98402 -1.83445 3.71367 6.45672 -1.25837e-06 -1.02172e-07 -25.8829 1.14014 4.32257 12.9942 -0.242716 4.98039 -90.7396 4.41838 -95.4882 5.34809 -7.22636e-06 -6.2814e-07 -59.568 -15.8225 -44.9898 24.3286 1.87007e-05 4.90208e-06 11.6725 4.94874 -67.336 22.2916 -9.88446e-07 4.63217e-06 46.6964 5.61037 -11.9829 12.9945 -0.242716 -4.98039 89.2187 8.54168 -99.7547 -5.34813 -1.25947e-06 -3.79883e-06 -37.3892 -14.295 -46.488 -24.3289 0.000322201 -8.65921e-06 36.0502 12.0246 -74.0288 -22.2915 -0.000108084 -4.47941e-06 41.3509 5.20278 2.64933 -2.19248 -6.46944 -1.22534e-07 -175.055 -10.6838 -24.9116 39.0811 -6.73843e-06 -1.23785e-05 0.0804721 -0.155077 26.6548 40.9854 -6.48686e-06 -1.26872e-05 -5.0857 0.297784 -57.1388 11.7543 -2.30145e-07 3.05095e-06 0.0317842 -0.0497963 -17.465 -2.19251 6.46944 -1.45247e-06 177.138 11.8251 153.431 -39.0811 -0.00228153 -0.0401928 0.0752011 -0.124981 28.3922 -40.9854 7.72618e-06 5.99936e-06 -2.14544 3.11921 -59.5402 -11.7543 -5.6619e-06 -5.58687e-06 0.00567733 -0.00632042 -16.6363 
0 0 0 0 0 -0 -2.95004 91.2152 -13.0249 91.1539 -5.40225 -7.65756 15.7357 5.1072e-06 -5.51765e-07 87.5228 80.627 -86.428 8.98455 -0.406207 -4.3199e-07 10.9716 -0.773657 2.26281 16.3773 -1.3905e-06 -6.99897e-07 -2.02635 -1.85075 3.67477 6.45672 -1.25837e-06 -1.02172e-07 -26.1455 1.26793 4.41329 12.9942 -0.242716 4.98039 -90.7186 4.37154 -95.6561 5.34809 -7.22636e-06 -6.2814e-07 -59.5233 -12.7514 -46.0688 24.3286 1.87007e-05 4.90208e-06 11.8789 5.05907 -67.2562 22.2916 -9.88446e-07 4.63217e-06 46.2386 5.60984 -11.9501 12.9945 -0.242716 -4.98039 89.2447 8.38865 -99.8368 -5.34813 -1.25947e-06 -3.79883e-06 -35.7786 -11.5785 -47.7203 -24.3289 0.000322201 -8.65921e-06 36.7754 12.306 -74.0853 -22.2915 -0.000108084 -4.47941e-06 41.0374 5.20896 2.49298 -2.19248 -6.46944 -1.22534e-07 -175.157 -10.8093 -24.8145 39.0811 -6.73843e-06 -1.23785e-05 0.0798893 -0.154891 26.4683 40.9854 -6.48686e-06 -1.26872e-05 -5.09084 0.426716 -56.9645 11.7543 -2.30145e-07 3.05095e-06 0.0345696 -0.054244 -17.544 -2.19251 6.46944 -1.45247e-06 177.055 11.7639 153.315 -39.0811 -0.00228153 -0.0401928 0.0762982 -0.12609 28.5937 -40.9854 7.72618e-06 5.99936e-06 -2.04698 3.05213 -59.5976 -11.7543 -5.6619e-06 -5.58687e-06 0.00136141 -0.00150652 -16.5887 
